<svg 
 xmlns="http://www.w3.org/2000/svg"
 xmlns:xlink="http://www.w3.org/1999/xlink"
 width="359px" height="99px">
<path fill-rule="evenodd"  fill="rgb(194, 194, 194)"
 d="M-0.000,14.000 L85.937,14.000 L85.937,43.375 L-0.000,43.375 L-0.000,14.000 Z"/>
<path fill-rule="evenodd"  fill="rgb(150, 255, 195)"
 d="M86.031,43.625 L171.969,43.625 L171.969,73.000 L86.031,73.000 L86.031,43.625 Z"/>
<path fill-rule="evenodd"  fill="rgb(139, 194, 255)"
 d="M172.062,14.000 L258.000,14.000 L258.000,43.375 L172.062,43.375 L172.062,14.000 Z"/>
<path fill-rule="evenodd"  fill="rgb(35, 35, 35)"
 d="M355.238,31.933 C353.515,31.933 352.089,32.634 350.960,34.036 C349.830,35.439 349.265,37.231 349.265,39.412 L349.265,60.704 L335.626,60.704 L335.626,20.203 L347.232,20.203 L348.588,25.558 C349.406,23.462 350.409,21.889 351.595,20.841 C352.781,19.793 354.164,19.268 355.746,19.268 C356.763,19.268 357.850,19.580 359.008,20.203 L359.008,32.953 C357.624,32.273 356.367,31.933 355.238,31.933 ZM309.999,61.639 C304.125,61.639 299.551,59.670 296.275,55.732 C292.999,51.794 291.361,46.779 291.361,40.687 C291.361,34.341 293.077,29.185 296.508,25.218 C299.939,21.252 304.450,19.268 310.042,19.268 C315.604,19.268 320.165,21.110 323.723,24.793 C327.281,28.476 329.060,33.633 329.060,40.262 C329.060,46.552 327.352,51.688 323.935,55.668 C320.518,59.649 315.872,61.639 309.999,61.639 ZM313.917,32.336 C313.084,30.538 311.834,29.638 310.169,29.638 C308.502,29.638 307.246,30.538 306.399,32.336 C305.552,34.136 305.128,36.835 305.128,40.432 C305.128,43.974 305.544,46.637 306.378,48.422 C307.210,50.207 308.460,51.099 310.126,51.099 C311.821,51.099 313.084,50.214 313.917,48.443 C314.750,46.673 315.167,44.017 315.167,40.475 C315.167,36.849 314.750,34.136 313.917,32.336 ZM270.945,1.419 L284.415,1.419 L284.415,60.704 L270.945,60.704 L270.945,1.419 ZM244.937,61.639 C239.063,61.639 234.488,59.670 231.213,55.732 C227.936,51.794 226.299,46.779 226.299,40.687 C226.299,34.341 228.015,29.185 231.446,25.218 C234.877,21.252 239.388,19.268 244.979,19.268 C250.542,19.268 255.103,21.110 258.661,24.793 C262.219,28.476 263.998,33.633 263.998,40.262 C263.998,46.552 262.289,51.688 258.873,55.668 C255.456,59.649 250.810,61.639 244.937,61.639 ZM248.855,32.336 C248.022,30.538 246.772,29.638 245.106,29.638 C243.440,29.638 242.183,30.538 241.336,32.336 C240.489,34.136 240.066,36.835 240.066,40.432 C240.066,43.974 240.482,46.637 241.315,48.422 C242.148,50.207 243.397,51.099 245.064,51.099 C246.758,51.099 248.022,50.214 248.855,48.443 C249.688,46.673 250.104,44.017 250.104,40.475 C250.104,36.849 249.688,34.136 248.855,32.336 ZM211.940,61.639 C207.026,61.639 202.882,59.606 199.507,55.541 C196.133,51.475 194.446,46.467 194.446,40.517 C194.446,34.596 196.175,29.574 199.635,25.452 C203.093,21.329 207.421,19.268 212.617,19.268 C214.905,19.268 217.531,19.835 220.496,20.968 L220.496,33.165 C218.654,31.834 217.011,31.168 215.565,31.168 C213.496,31.168 211.754,32.018 210.337,33.718 C208.920,35.418 208.212,37.571 208.212,40.177 C208.212,42.784 208.928,44.973 210.358,46.743 C211.789,48.514 213.468,49.400 215.395,49.400 C217.067,49.400 218.767,48.649 220.496,47.147 L220.496,59.132 C217.587,60.803 214.735,61.639 211.940,61.639 ZM152.511,53.904 C152.511,48.437 153.358,44.180 155.052,41.134 C156.747,38.088 160.517,34.100 166.362,29.170 C169.129,26.819 170.930,25.055 171.763,23.879 C172.595,22.704 173.012,21.478 173.012,20.203 C173.012,18.532 172.361,17.122 171.059,15.975 C169.757,14.827 168.045,14.254 165.922,14.254 C162.808,14.254 159.227,15.757 155.180,18.764 L155.180,6.264 C160.354,4.111 165.005,3.034 169.134,3.034 C174.478,3.034 178.776,4.480 182.028,7.373 C185.280,10.265 186.906,14.023 186.906,18.645 C186.906,22.275 186.002,25.387 184.195,27.982 C182.388,30.577 178.943,34.001 173.860,38.254 C170.217,41.289 167.936,43.515 167.019,44.933 C166.101,46.351 165.585,48.038 165.473,49.995 L187.838,49.995 L187.838,60.704 L152.511,60.704 L152.511,53.904 ZM124.385,80.508 C119.895,80.508 115.221,79.247 110.364,76.726 L110.364,63.381 C114.628,66.724 118.342,68.396 121.505,68.396 C123.961,68.396 126.009,67.568 127.647,65.910 C129.284,64.253 130.103,62.163 130.103,59.642 L130.103,55.817 C128.945,57.432 127.661,58.650 126.249,59.472 C124.836,60.294 123.284,60.704 121.589,60.704 C117.805,60.704 114.543,58.721 111.805,54.754 C109.065,50.788 107.696,46.014 107.696,40.432 C107.696,34.993 109.079,30.105 111.847,25.771 C114.614,21.436 118.158,19.268 122.479,19.268 C124.116,19.268 125.641,19.616 127.054,20.310 C128.465,21.004 129.765,22.059 130.951,23.476 L134.593,20.203 L143.573,20.203 L143.573,59.089 C143.573,65.124 141.907,70.202 138.575,74.325 C135.243,78.447 130.512,80.508 124.385,80.508 ZM130.103,32.570 C129.482,31.862 128.860,31.338 128.240,30.998 C127.618,30.658 126.997,30.488 126.376,30.488 C124.823,30.488 123.594,31.331 122.691,33.016 C121.787,34.702 121.335,36.905 121.335,39.625 C121.335,42.402 121.773,44.647 122.648,46.361 C123.523,48.075 124.667,48.932 126.079,48.932 C127.435,48.932 128.444,48.281 129.108,46.977 C129.771,45.674 130.103,43.733 130.103,41.155 L130.103,32.570 ZM88.084,35.800 C88.084,32.627 87.180,31.040 85.373,31.040 C84.130,31.040 83.198,31.629 82.577,32.804 C81.956,33.980 81.645,35.758 81.645,38.138 L81.645,60.704 L68.303,60.704 L68.303,35.800 C68.303,32.627 67.413,31.040 65.634,31.040 C64.533,31.040 63.643,31.643 62.965,32.846 C62.288,34.051 61.949,35.545 61.949,37.330 L61.949,60.704 L48.691,60.704 L48.691,20.203 L60.043,20.203 L61.525,24.581 C62.711,22.796 64.067,21.464 65.592,20.586 C67.116,19.708 68.825,19.268 70.717,19.268 C74.811,19.268 77.847,21.450 79.824,25.813 C81.097,23.632 82.583,21.995 84.280,20.904 C85.978,19.814 87.902,19.268 90.052,19.268 C93.532,19.268 96.319,20.564 98.413,23.157 C100.507,25.749 101.554,29.085 101.554,33.165 L101.554,60.704 L88.084,60.704 L88.084,35.800 ZM32.891,14.806 C30.858,14.806 29.142,14.091 27.744,12.660 C26.347,11.229 25.648,9.536 25.648,7.581 C25.648,5.598 26.368,3.913 27.808,2.524 C29.248,1.136 30.942,0.442 32.891,0.442 C34.726,0.442 36.392,1.108 37.889,2.439 C39.386,3.771 40.134,5.499 40.134,7.624 C40.134,9.636 39.421,11.336 37.995,12.724 C36.569,14.112 34.867,14.806 32.891,14.806 ZM39.541,60.704 L26.071,60.704 L26.071,20.203 L39.541,20.203 L39.541,60.704 Z"/>
<path fill-rule="evenodd"  fill="rgb(35, 35, 35)"
 d="M344.381,90.362 C344.630,91.448 345.053,92.263 345.652,92.806 C346.251,93.349 347.025,93.620 347.975,93.620 C348.709,93.620 349.381,93.456 349.991,93.128 C350.602,92.800 351.409,92.212 352.415,91.363 L352.415,96.386 C350.349,97.552 348.424,98.134 346.640,98.134 C344.315,98.134 342.426,97.348 340.976,95.775 C339.525,94.203 338.800,92.189 338.800,89.734 C338.800,87.358 339.485,85.345 340.857,83.693 C342.229,82.041 344.060,81.215 346.352,81.215 C348.384,81.215 350.010,81.923 351.229,83.337 C352.448,84.751 353.058,86.646 353.058,89.021 L353.058,90.362 L344.381,90.362 ZM348.356,86.951 C348.356,86.216 348.163,85.588 347.778,85.067 C347.394,84.547 346.912,84.287 346.335,84.287 C345.656,84.287 345.132,84.553 344.764,85.084 C344.396,85.616 344.184,86.420 344.127,87.494 L348.356,87.494 L348.356,86.951 ZM330.850,87.223 C330.850,86.306 330.512,85.848 329.835,85.848 C329.362,85.848 328.984,86.097 328.702,86.595 C328.420,87.093 328.279,87.788 328.279,88.682 L328.279,97.761 L322.968,97.761 L322.968,81.589 L327.586,81.589 L328.110,83.269 C328.585,82.579 329.124,82.064 329.729,81.724 C330.333,81.385 331.008,81.215 331.754,81.215 C333.031,81.215 334.096,81.682 334.949,82.615 C335.802,83.549 336.229,84.711 336.229,86.103 L336.229,97.761 L330.850,97.761 L330.850,87.223 ZM316.794,79.434 C315.983,79.434 315.298,79.148 314.739,78.577 C314.181,78.005 313.902,77.329 313.902,76.549 C313.902,75.757 314.190,75.084 314.765,74.529 C315.340,73.975 316.016,73.698 316.794,73.698 C317.527,73.698 318.193,73.964 318.790,74.495 C319.388,75.027 319.687,75.717 319.687,76.566 C319.687,77.369 319.402,78.048 318.833,78.602 C318.263,79.156 317.584,79.434 316.794,79.434 ZM305.039,74.088 L310.418,74.088 L310.418,97.761 L305.039,97.761 L305.039,74.088 ZM296.227,87.223 C296.227,86.306 295.889,85.848 295.212,85.848 C294.739,85.848 294.361,86.097 294.079,86.595 C293.797,87.093 293.656,87.788 293.656,88.682 L293.656,97.761 L288.345,97.761 L288.345,81.589 L292.963,81.589 L293.487,83.269 C293.962,82.579 294.501,82.064 295.106,81.724 C295.710,81.385 296.385,81.215 297.131,81.215 C298.408,81.215 299.473,81.682 300.326,82.615 C301.179,83.549 301.606,84.711 301.606,86.103 L301.606,97.761 L296.227,97.761 L296.227,87.223 ZM276.911,98.134 C274.171,98.134 272.051,96.975 270.552,94.655 C269.052,92.336 268.302,89.446 268.302,85.984 C268.302,83.586 268.668,81.433 269.402,79.527 C270.134,77.621 271.161,76.173 272.480,75.183 C273.799,74.193 275.180,73.698 276.624,73.698 C279.476,73.698 281.726,74.778 283.372,76.939 C285.019,79.100 285.842,82.053 285.842,85.797 C285.842,89.553 285.013,92.549 283.356,94.783 C281.698,97.017 279.550,98.134 276.911,98.134 ZM279.389,80.528 C278.786,79.301 278.061,78.687 277.216,78.687 C276.111,78.687 275.265,79.326 274.679,80.604 C274.092,81.883 273.799,83.631 273.799,85.848 C273.799,88.100 274.084,89.867 274.653,91.151 C275.223,92.435 276.009,93.077 277.013,93.077 C278.005,93.077 278.800,92.415 279.398,91.092 C279.995,89.768 280.294,88.003 280.294,85.797 C280.294,83.512 279.992,81.756 279.389,80.528 ZM256.564,87.002 L265.477,87.002 L265.477,92.348 L256.564,92.348 L256.564,87.002 ZM319.450,97.761 L314.071,97.761 L314.071,81.589 L319.450,81.589 L319.450,97.761 Z"/>
</svg>