<svg 
 xmlns="http://www.w3.org/2000/svg"
 xmlns:xlink="http://www.w3.org/1999/xlink"
 width="95px" height="89px">
<path fill-rule="evenodd"  stroke-width="4px" stroke="rgb(35, 35, 35)" fill-opacity="0" fill="rgb(238, 238, 238)"
 d="M4.000,4.000 L83.125,4.000 L83.125,81.906 L4.000,81.906 L4.000,4.000 Z"/>
<path fill-rule="evenodd"  fill="rgb(35, 35, 35)"
 d="M21.000,67.000 L30.000,41.000 L37.000,59.000 L55.000,24.000 L74.000,67.000 "/>
<path fill-rule="evenodd"  fill="rgb(35, 35, 35)"
 d="M30.000,14.000 C33.866,14.000 37.000,17.134 37.000,21.000 C37.000,24.866 33.866,28.000 30.000,28.000 C26.134,28.000 23.000,24.866 23.000,21.000 C23.000,17.134 26.134,14.000 30.000,14.000 Z"/>
<path fill-rule="evenodd"  fill="rgb(238, 238, 238)"
 d="M77.203,53.594 C87.032,53.594 95.000,61.520 95.000,71.297 C95.000,81.074 87.032,89.000 77.203,89.000 C67.374,89.000 59.406,81.074 59.406,71.297 C59.406,61.520 67.374,53.594 77.203,53.594 Z"/>
<path fill-rule="evenodd"  fill="rgb(35, 35, 35)"
 d="M77.203,56.719 C85.289,56.719 91.844,63.239 91.844,71.281 C91.844,79.324 85.289,85.844 77.203,85.844 C69.117,85.844 62.562,79.324 62.562,71.281 C62.562,63.239 69.117,56.719 77.203,56.719 Z"/>
<path fill-rule="evenodd"  fill="rgb(238, 238, 238)"
 d="M75.647,80.135 L78.497,80.135 L78.497,73.177 L85.071,73.177 L85.071,70.472 L78.497,70.472 L78.497,63.514 L75.647,63.514 L75.647,70.472 L69.073,70.472 L69.073,73.177 L75.647,73.177 L75.647,80.135 Z"/>
</svg>